<mxfile host="app.diagrams.net" modified="2024-05-13T06:21:34.398Z" agent="Mozilla/5.0 (Windows NT 10.0; Win64; x64) AppleWebKit/537.36 (KHTML, like Gecko) Chrome/124.0.0.0 Safari/537.36" etag="kG0NR0WqQg29T8vtJ4d-" version="24.4.0" type="github">
  <diagram name="Page-1" id="929967ad-93f9-6ef4-fab6-5d389245f69c">
    <mxGraphModel dx="547" dy="763" grid="1" gridSize="10" guides="1" tooltips="1" connect="1" arrows="1" fold="1" page="1" pageScale="1.5" pageWidth="1169" pageHeight="826" background="none" math="0" shadow="0">
      <root>
        <mxCell id="0" style=";html=1;" />
        <mxCell id="1" style=";html=1;" parent="0" />
        <mxCell id="1672d66443f91eb5-23" value="TODO List" style="text;strokeColor=none;fillColor=none;html=1;fontSize=24;fontStyle=1;verticalAlign=middle;align=center;" parent="1" vertex="1">
          <mxGeometry x="120" y="40" width="1510" height="40" as="geometry" />
        </mxCell>
        <mxCell id="0EBBXHN2-Uh58d_mLUUu-9" value="User&lt;div&gt;&lt;br&gt;&lt;/div&gt;" style="shape=umlActor;verticalLabelPosition=bottom;verticalAlign=top;html=1;outlineConnect=0;pointerEvents=0;align=center;fontFamily=Helvetica;fontSize=12;fontColor=default;fillColor=none;gradientColor=none;" vertex="1" parent="1">
          <mxGeometry x="460" y="635" width="30" height="60" as="geometry" />
        </mxCell>
        <mxCell id="0EBBXHN2-Uh58d_mLUUu-26" value="" style="group" vertex="1" connectable="0" parent="1">
          <mxGeometry x="550" y="530" width="370" height="300" as="geometry" />
        </mxCell>
        <mxCell id="0EBBXHN2-Uh58d_mLUUu-1" value="" style="group" vertex="1" connectable="0" parent="0EBBXHN2-Uh58d_mLUUu-26">
          <mxGeometry x="19.99509157509158" y="40" width="216.84981684981688" height="230" as="geometry" />
        </mxCell>
        <mxCell id="0EBBXHN2-Uh58d_mLUUu-5" value="" style="edgeStyle=orthogonalEdgeStyle;rounded=0;orthogonalLoop=1;jettySize=auto;html=1;fontFamily=Helvetica;fontSize=12;fontColor=default;fontStyle=1;" edge="1" parent="0EBBXHN2-Uh58d_mLUUu-1" source="1672d66443f91eb5-4" target="1672d66443f91eb5-10">
          <mxGeometry relative="1" as="geometry" />
        </mxCell>
        <mxCell id="1672d66443f91eb5-4" value="&lt;span style=&quot;font-weight: normal;&quot;&gt;&lt;br&gt;TODO-List 카드&lt;br&gt;조회/생성/수정/삭제/완료&lt;/span&gt;" style="shape=rect;html=1;overflow=fill;whiteSpace=wrap;align=center;fontStyle=1" parent="0EBBXHN2-Uh58d_mLUUu-1" vertex="1">
          <mxGeometry x="18.3" y="40" width="176.19" height="50" as="geometry" />
        </mxCell>
        <mxCell id="1672d66443f91eb5-10" value="&lt;br&gt;댓글&amp;nbsp;&lt;br&gt;조회/생성/수정/삭제" style="shape=rect;html=1;overflow=fill;whiteSpace=wrap;" parent="0EBBXHN2-Uh58d_mLUUu-1" vertex="1">
          <mxGeometry x="11" y="180" width="190" height="50" as="geometry" />
        </mxCell>
        <mxCell id="0EBBXHN2-Uh58d_mLUUu-38" value="" style="endArrow=classic;startArrow=classic;html=1;rounded=0;fontFamily=Helvetica;fontSize=12;fontColor=default;fontStyle=1;exitX=0.5;exitY=0;exitDx=0;exitDy=0;entryX=0.5;entryY=1;entryDx=0;entryDy=0;" edge="1" parent="0EBBXHN2-Uh58d_mLUUu-1" source="1672d66443f91eb5-10" target="1672d66443f91eb5-4">
          <mxGeometry width="50" height="50" relative="1" as="geometry">
            <mxPoint x="160.00490842490842" y="140" as="sourcePoint" />
            <mxPoint x="210.00490842490842" y="90" as="targetPoint" />
          </mxGeometry>
        </mxCell>
        <mxCell id="0EBBXHN2-Uh58d_mLUUu-46" style="edgeStyle=orthogonalEdgeStyle;rounded=0;orthogonalLoop=1;jettySize=auto;html=1;fontFamily=Helvetica;fontSize=12;fontColor=default;fontStyle=1;" edge="1" parent="0EBBXHN2-Uh58d_mLUUu-1" source="0EBBXHN2-Uh58d_mLUUu-44">
          <mxGeometry relative="1" as="geometry">
            <mxPoint x="50.00490842490842" y="180" as="targetPoint" />
          </mxGeometry>
        </mxCell>
        <mxCell id="0EBBXHN2-Uh58d_mLUUu-47" style="edgeStyle=orthogonalEdgeStyle;rounded=0;orthogonalLoop=1;jettySize=auto;html=1;fontFamily=Helvetica;fontSize=12;fontColor=default;fontStyle=1;" edge="1" parent="0EBBXHN2-Uh58d_mLUUu-1" source="0EBBXHN2-Uh58d_mLUUu-44">
          <mxGeometry relative="1" as="geometry">
            <mxPoint x="60.00490842490842" y="90" as="targetPoint" />
          </mxGeometry>
        </mxCell>
        <mxCell id="0EBBXHN2-Uh58d_mLUUu-44" value="날짜순 정렬" style="ellipse;whiteSpace=wrap;html=1;pointerEvents=0;align=center;verticalAlign=top;fontFamily=Helvetica;fontSize=12;fontColor=default;fillColor=none;gradientColor=none;" vertex="1" parent="0EBBXHN2-Uh58d_mLUUu-1">
          <mxGeometry x="0.004908424908375508" y="120" width="90" height="25" as="geometry" />
        </mxCell>
        <mxCell id="0EBBXHN2-Uh58d_mLUUu-3" value="TODO Card" style="shape=umlFrame;whiteSpace=wrap;html=1;pointerEvents=0;align=center;verticalAlign=top;fontFamily=Helvetica;fontSize=12;fontColor=default;fillColor=none;gradientColor=none;width=143;height=23;" vertex="1" parent="0EBBXHN2-Uh58d_mLUUu-26">
          <mxGeometry width="370" height="300" as="geometry" />
        </mxCell>
        <mxCell id="0EBBXHN2-Uh58d_mLUUu-36" value="로그인" style="ellipse;whiteSpace=wrap;html=1;pointerEvents=0;align=center;verticalAlign=top;fontFamily=Helvetica;fontSize=12;fontColor=default;fillColor=none;gradientColor=none;" vertex="1" parent="0EBBXHN2-Uh58d_mLUUu-26">
          <mxGeometry x="247" y="130" width="90" height="25" as="geometry" />
        </mxCell>
        <mxCell id="0EBBXHN2-Uh58d_mLUUu-37" style="edgeStyle=orthogonalEdgeStyle;rounded=0;orthogonalLoop=1;jettySize=auto;html=1;entryX=0.5;entryY=0;entryDx=0;entryDy=0;fontFamily=Helvetica;fontSize=12;fontColor=default;fontStyle=1;" edge="1" parent="0EBBXHN2-Uh58d_mLUUu-26" source="1672d66443f91eb5-4" target="0EBBXHN2-Uh58d_mLUUu-36">
          <mxGeometry relative="1" as="geometry" />
        </mxCell>
        <mxCell id="0EBBXHN2-Uh58d_mLUUu-42" value="" style="endArrow=none;dashed=1;html=1;rounded=0;fontFamily=Helvetica;fontSize=12;fontColor=default;fontStyle=1;entryX=0.5;entryY=1;entryDx=0;entryDy=0;exitX=1;exitY=0.5;exitDx=0;exitDy=0;" edge="1" parent="0EBBXHN2-Uh58d_mLUUu-26" source="1672d66443f91eb5-10" target="0EBBXHN2-Uh58d_mLUUu-36">
          <mxGeometry width="50" height="50" relative="1" as="geometry">
            <mxPoint x="180" y="170" as="sourcePoint" />
            <mxPoint x="230" y="120" as="targetPoint" />
          </mxGeometry>
        </mxCell>
        <mxCell id="0EBBXHN2-Uh58d_mLUUu-43" value="extend" style="text;html=1;align=center;verticalAlign=middle;resizable=0;points=[];autosize=1;strokeColor=none;fillColor=none;fontFamily=Helvetica;fontSize=12;fontColor=default;" vertex="1" parent="0EBBXHN2-Uh58d_mLUUu-26">
          <mxGeometry x="247" y="198" width="60" height="30" as="geometry" />
        </mxCell>
        <mxCell id="0EBBXHN2-Uh58d_mLUUu-34" value="" style="endArrow=none;html=1;rounded=0;fontFamily=Helvetica;fontSize=12;fontColor=default;fontStyle=1;entryX=0;entryY=0.5;entryDx=0;entryDy=0;" edge="1" parent="1" target="1672d66443f91eb5-4">
          <mxGeometry width="50" height="50" relative="1" as="geometry">
            <mxPoint x="500" y="650" as="sourcePoint" />
            <mxPoint x="600" y="570" as="targetPoint" />
          </mxGeometry>
        </mxCell>
        <mxCell id="0EBBXHN2-Uh58d_mLUUu-35" value="" style="endArrow=none;html=1;rounded=0;fontFamily=Helvetica;fontSize=12;fontColor=default;fontStyle=1;entryX=0;entryY=0.5;entryDx=0;entryDy=0;" edge="1" parent="1" target="1672d66443f91eb5-10">
          <mxGeometry width="50" height="50" relative="1" as="geometry">
            <mxPoint x="500" y="675" as="sourcePoint" />
            <mxPoint x="550" y="625" as="targetPoint" />
          </mxGeometry>
        </mxCell>
        <mxCell id="0EBBXHN2-Uh58d_mLUUu-41" value="include" style="text;html=1;align=center;verticalAlign=middle;resizable=0;points=[];autosize=1;strokeColor=none;fillColor=none;fontFamily=Helvetica;fontSize=12;fontColor=default;" vertex="1" parent="1">
          <mxGeometry x="770" y="578" width="60" height="30" as="geometry" />
        </mxCell>
      </root>
    </mxGraphModel>
  </diagram>
</mxfile>
